<?xml version="1.0" standalone="no"?><!-- Generator: Gravit.io --><svg xmlns="http://www.w3.org/2000/svg" xmlns:xlink="http://www.w3.org/1999/xlink" style="isolation:isolate" viewBox="0 0 124.724 124.724" width="124.724" height="124.724"><rect x="0" y="0" width="124.724" height="124.724" transform="matrix(1,0,0,1,0,0)" fill="rgb(241,90,36)"/><g id="null"><g id="null"><path d=" M 71.212 74.012 C 71.812 74.012 72.312 73.812 72.812 73.312 C 73.612 72.512 74.412 71.712 75.212 70.912 C 76.112 70.012 76.212 68.512 75.212 67.612 C 74.412 66.912 73.712 66.112 72.912 65.312 C 72.812 65.212 72.812 65.212 72.712 65.112 C 71.912 64.412 70.612 64.412 69.812 65.212 C 68.912 66.112 68.112 66.912 67.212 67.812 C 66.412 68.612 66.412 69.912 67.212 70.712 C 68.112 71.612 68.912 72.512 69.812 73.312 C 70.212 73.912 70.712 74.012 71.212 74.012 Z " fill="rgb(255,255,255)"/><path d=" M 93.012 69.112 C 93.012 69.712 93.212 70.212 93.612 70.612 C 94.512 71.512 95.312 72.412 96.212 73.212 C 96.712 73.612 97.212 73.812 97.912 73.712 C 98.412 73.712 98.812 73.412 99.212 73.112 C 100.012 72.312 100.912 71.412 101.712 70.612 C 101.812 70.512 101.812 70.512 101.912 70.412 C 102.512 69.612 102.512 68.412 101.812 67.612 C 100.912 66.712 100.112 65.812 99.212 65.012 C 98.412 64.212 97.112 64.212 96.312 65.012 C 95.412 65.912 94.512 66.712 93.712 67.612 C 93.212 68.012 93.012 68.512 93.012 69.112 Z " fill="rgb(255,255,255)"/><path d=" M 89.012 82.412 C 89.012 81.812 88.812 81.312 88.412 80.912 C 87.612 80.012 86.712 79.212 85.912 78.412 C 85.012 77.512 83.712 77.612 82.812 78.412 C 82.012 79.212 81.212 80.012 80.312 80.912 C 79.412 81.812 79.412 83.112 80.312 84.012 C 81.112 84.912 82.012 85.712 82.812 86.512 C 83.612 87.312 84.912 87.312 85.812 86.512 C 86.712 85.712 87.512 84.812 88.312 84.012 C 88.812 83.512 89.012 82.912 89.012 82.412 Z " fill="rgb(255,255,255)"/><path d=" M 102.012 95.612 C 102.012 95.012 101.812 94.512 101.412 94.112 C 100.612 93.312 99.812 92.512 99.012 91.612 C 98.812 91.412 98.612 91.312 98.412 91.212 C 97.612 90.812 96.612 90.912 95.912 91.612 C 95.112 92.412 94.212 93.212 93.412 94.112 C 93.312 94.212 93.312 94.312 93.212 94.312 C 92.612 95.112 92.612 96.312 93.312 97.012 C 94.212 97.912 95.012 98.812 95.912 99.612 C 96.812 100.412 98.012 100.412 98.912 99.512 C 99.712 98.712 100.612 97.812 101.412 97.012 C 101.812 96.712 102.012 96.212 102.012 95.612 Z " fill="rgb(255,255,255)"/><path d=" M 91.012 80.412 C 91.612 80.412 92.112 80.212 92.512 79.812 C 92.812 79.512 93.212 79.112 93.512 78.812 C 94.012 78.312 94.512 77.812 95.012 77.312 C 95.812 76.512 95.812 75.212 95.012 74.412 C 94.212 73.512 93.312 72.712 92.412 71.812 C 91.512 71.012 90.312 71.012 89.512 71.812 C 88.612 72.612 87.812 73.512 86.912 74.412 C 86.112 75.212 86.112 76.512 86.912 77.312 C 87.812 78.212 88.612 79.112 89.512 79.912 C 90.012 80.212 90.512 80.412 91.012 80.412 Z " fill="rgb(255,255,255)"/><path d=" M 82.312 89.112 C 82.312 88.512 82.112 88.112 81.712 87.712 C 80.812 86.812 80.012 85.912 79.112 85.112 C 78.712 84.712 78.312 84.612 77.712 84.612 C 77.012 84.612 76.512 84.812 76.112 85.312 C 75.312 86.112 74.512 86.912 73.712 87.712 C 72.812 88.512 72.812 90.012 73.712 90.912 C 74.512 91.712 75.312 92.512 76.112 93.312 C 76.912 94.112 78.212 94.212 79.112 93.412 C 79.312 93.312 79.412 93.112 79.612 92.912 C 80.312 92.212 81.012 91.512 81.612 90.912 C 82.112 90.212 82.312 89.712 82.312 89.112 Z " fill="rgb(255,255,255)"/><path d=" M 77.812 71.412 C 77.212 71.412 76.712 71.612 76.312 72.012 C 75.512 72.812 74.612 73.712 73.812 74.512 C 73.012 75.412 72.912 76.612 73.812 77.512 C 74.612 78.312 75.512 79.212 76.312 80.012 C 77.212 80.812 78.412 80.812 79.312 80.012 C 80.112 79.212 81.012 78.312 81.812 77.512 C 82.612 76.712 82.612 75.412 81.812 74.512 C 81.012 73.612 80.112 72.812 79.212 71.912 C 78.912 71.612 78.412 71.412 77.812 71.412 Z " fill="rgb(255,255,255)"/><path d=" M 90.912 84.512 C 90.312 84.512 89.812 84.712 89.412 85.112 C 89.012 85.512 88.512 86.012 88.112 86.412 C 87.712 86.812 87.312 87.112 87.012 87.512 C 86.212 88.412 86.212 89.612 87.012 90.512 C 87.812 91.312 88.712 92.212 89.512 93.012 C 90.412 93.812 91.612 93.812 92.512 93.012 C 93.312 92.212 94.212 91.412 95.012 90.512 C 95.912 89.612 95.912 88.312 95.012 87.512 C 94.212 86.712 93.312 85.812 92.512 85.012 C 92.012 84.712 91.512 84.512 90.912 84.512 Z " fill="rgb(255,255,255)"/><path d=" M 70.912 100.412 C 70.912 100.412 70.912 100.412 70.912 100.412 C 70.112 100.312 69.612 99.912 69.112 99.412 C 68.412 98.712 67.712 98.012 67.012 97.312 C 66.112 96.412 66.112 95.112 67.012 94.212 C 67.812 93.412 68.612 92.612 69.412 91.812 C 70.312 90.912 71.612 90.912 72.612 91.812 C 73.412 92.612 74.212 93.412 75.012 94.212 C 75.812 95.112 75.912 96.412 75.012 97.212 C 74.212 98.112 73.312 98.912 72.512 99.712 C 72.212 100.012 71.912 100.112 71.512 100.212 C 71.412 100.212 71.212 100.312 71.112 100.312 C 71.112 100.412 71.012 100.412 70.912 100.412 Z " fill="rgb(255,255,255)"/><path d=" M 71.212 74.012 C 70.612 74.012 70.112 73.812 69.712 73.412 C 68.812 72.512 67.912 71.712 67.112 70.812 C 66.312 70.012 66.412 68.712 67.112 67.912 C 68.012 67.012 68.812 66.212 69.712 65.312 C 70.512 64.512 71.712 64.512 72.612 65.212 C 72.712 65.312 72.712 65.312 72.812 65.412 C 73.612 66.212 74.312 66.912 75.112 67.712 C 76.112 68.612 76.112 70.112 75.112 71.012 C 74.312 71.812 73.512 72.612 72.712 73.412 C 72.412 73.812 71.912 74.012 71.212 74.012 Z " fill="rgb(255,255,255)"/><path d=" M 93.012 69.112 C 93.012 68.612 93.212 68.112 93.612 67.712 C 94.512 66.812 95.312 65.912 96.212 65.112 C 97.012 64.312 98.312 64.312 99.112 65.112 C 100.012 66.012 100.912 66.812 101.712 67.712 C 102.412 68.512 102.412 69.612 101.812 70.512 C 101.712 70.612 101.712 70.612 101.612 70.712 C 100.812 71.512 99.912 72.412 99.112 73.212 C 98.712 73.612 98.312 73.812 97.812 73.812 C 97.212 73.912 96.612 73.712 96.112 73.312 C 95.212 72.412 94.312 71.612 93.512 70.712 C 93.212 70.212 93.012 69.712 93.012 69.112 Z " fill="rgb(255,255,255)"/><path d=" M 89.012 82.412 C 89.012 83.012 88.812 83.512 88.412 83.912 C 87.612 84.812 86.712 85.612 85.912 86.412 C 85.112 87.212 83.812 87.212 82.912 86.412 C 82.012 85.612 81.212 84.712 80.412 83.912 C 79.512 83.012 79.612 81.712 80.412 80.812 C 81.212 80.012 82.012 79.212 82.912 78.312 C 83.812 77.412 85.112 77.412 86.012 78.312 C 86.912 79.112 87.712 80.012 88.512 80.812 C 88.812 81.312 89.012 81.812 89.012 82.412 Z " fill="rgb(255,255,255)"/><path d=" M 89.012 69.412 C 89.012 70.012 88.812 70.512 88.412 70.912 C 87.612 71.812 86.712 72.612 85.912 73.412 C 85.112 74.212 83.812 74.212 82.912 73.412 C 82.012 72.612 81.212 71.712 80.412 70.912 C 79.512 70.012 79.612 68.712 80.412 67.812 C 81.212 67.012 82.012 66.212 82.912 65.312 C 83.812 64.412 85.112 64.412 86.012 65.312 C 86.912 66.112 87.712 67.012 88.512 67.812 C 88.812 68.312 89.012 68.812 89.012 69.412 Z " fill="rgb(255,255,255)"/><path d=" M 89.012 95.612 C 89.012 96.212 88.812 96.712 88.412 97.112 C 87.612 98.012 86.712 98.812 85.912 99.612 C 85.112 100.412 83.812 100.412 82.912 99.612 C 82.012 98.812 81.212 97.912 80.412 97.112 C 79.512 96.212 79.612 94.912 80.412 94.012 C 81.212 93.212 82.012 92.412 82.912 91.512 C 83.812 90.612 85.112 90.612 86.012 91.512 C 86.912 92.312 87.712 93.212 88.512 94.012 C 88.812 94.512 89.012 95.012 89.012 95.612 Z " fill="rgb(255,255,255)"/><path d=" M 97.512 87.112 C 96.912 87.112 96.412 86.912 96.012 86.512 C 95.112 85.712 94.312 84.812 93.512 84.012 C 92.712 83.212 92.712 81.912 93.512 81.012 C 94.312 80.112 95.212 79.312 96.012 78.512 C 96.912 77.612 98.212 77.712 99.112 78.512 C 99.912 79.312 100.712 80.112 101.612 81.012 C 102.512 81.912 102.512 83.212 101.612 84.112 C 100.812 85.012 99.912 85.812 99.112 86.612 C 98.512 87.012 98.012 87.112 97.512 87.112 Z " fill="rgb(255,255,255)"/><path d=" M 71.312 87.112 C 70.712 87.112 70.212 86.912 69.812 86.512 C 68.912 85.712 68.112 84.812 67.312 84.012 C 66.512 83.212 66.512 81.912 67.312 81.012 C 68.112 80.112 69.012 79.312 69.812 78.512 C 70.712 77.612 72.012 77.712 72.912 78.512 C 73.712 79.312 74.512 80.112 75.412 81.012 C 76.312 81.912 76.312 83.212 75.412 84.112 C 74.612 85.012 73.712 85.812 72.912 86.612 C 72.312 87.012 71.912 87.112 71.312 87.112 Z " fill="rgb(255,255,255)"/><path d=" M 102.012 95.612 C 102.012 96.212 101.812 96.712 101.412 97.112 C 100.612 97.912 99.712 98.812 98.912 99.612 C 98.112 100.412 96.812 100.512 95.912 99.712 C 95.012 98.812 94.112 98.012 93.312 97.112 C 92.612 96.412 92.612 95.212 93.212 94.412 C 93.312 94.312 93.312 94.212 93.412 94.212 C 94.212 93.412 95.012 92.512 95.912 91.712 C 96.612 91.012 97.612 90.912 98.412 91.312 C 98.612 91.412 98.812 91.612 99.012 91.712 C 99.812 92.512 100.612 93.312 101.412 94.212 C 101.812 94.512 102.012 95.012 102.012 95.612 Z " fill="rgb(255,255,255)"/><path d=" M 91.012 80.412 C 90.512 80.412 90.012 80.212 89.612 79.912 C 88.712 79.012 87.812 78.212 87.012 77.312 C 86.212 76.512 86.212 75.212 87.012 74.412 C 87.812 73.512 88.712 72.712 89.612 71.812 C 90.512 71.012 91.712 71.012 92.512 71.812 C 93.412 72.612 94.212 73.512 95.112 74.412 C 95.912 75.212 95.912 76.512 95.112 77.312 C 94.612 77.812 94.112 78.312 93.612 78.812 C 93.312 79.112 92.912 79.512 92.612 79.812 C 92.112 80.212 91.612 80.412 91.012 80.412 Z " fill="rgb(255,255,255)"/><path d=" M 82.312 89.112 C 82.312 89.712 82.112 90.212 81.612 90.712 C 80.912 91.412 80.212 92.112 79.612 92.712 C 79.412 92.912 79.312 93.012 79.112 93.212 C 78.212 94.012 77.012 94.012 76.112 93.112 C 75.312 92.312 74.512 91.512 73.712 90.712 C 72.812 89.812 72.812 88.412 73.712 87.512 C 74.512 86.712 75.312 85.912 76.112 85.112 C 76.612 84.612 77.112 84.412 77.712 84.412 C 78.212 84.412 78.712 84.612 79.112 84.912 C 80.012 85.812 80.812 86.612 81.712 87.512 C 82.112 88.012 82.312 88.512 82.312 89.112 Z " fill="rgb(255,255,255)"/><path d=" M 77.812 71.412 C 78.412 71.412 78.912 71.612 79.212 72.012 C 80.112 72.812 80.912 73.712 81.812 74.612 C 82.612 75.412 82.612 76.712 81.812 77.612 C 81.012 78.512 80.112 79.312 79.312 80.112 C 78.412 80.912 77.212 80.912 76.312 80.112 C 75.512 79.312 74.612 78.412 73.812 77.612 C 73.012 76.712 73.012 75.512 73.812 74.612 C 74.612 73.812 75.512 72.912 76.312 72.112 C 76.712 71.612 77.212 71.412 77.812 71.412 Z " fill="rgb(255,255,255)"/><path d=" M 90.912 84.512 C 91.512 84.512 92.012 84.712 92.412 85.112 C 93.212 85.912 94.112 86.812 94.912 87.612 C 95.712 88.512 95.712 89.812 94.912 90.612 C 94.112 91.412 93.312 92.312 92.412 93.112 C 91.512 93.912 90.312 93.912 89.412 93.112 C 88.612 92.312 87.712 91.412 86.912 90.612 C 86.112 89.812 86.112 88.512 86.912 87.612 C 87.312 87.212 87.712 86.812 88.012 86.512 C 88.412 86.112 88.912 85.612 89.312 85.212 C 89.812 84.712 90.312 84.512 90.912 84.512 Z " fill="rgb(255,255,255)"/></g><g id="null"><path d=" M 54.812 35.912 C 54.812 35.912 54.812 35.912 54.812 35.912 C 54.712 35.612 54.712 35.312 54.712 35.012 C 54.712 34.112 54.712 33.312 54.712 32.412 C 54.712 31.512 54.012 30.612 52.912 30.712 C 52.112 30.712 51.412 30.712 50.612 30.712 C 49.812 30.712 49.312 31.212 49.112 31.712 C 49.012 32.012 48.912 32.312 48.912 32.712 C 48.912 39.612 48.912 46.612 48.912 53.512 C 48.912 53.612 48.912 53.712 48.912 53.812 C 48.912 54.712 49.612 55.412 50.412 55.512 C 51.612 55.612 52.712 55.612 53.912 55.512 C 54.612 55.512 55.112 55.012 55.312 54.212 C 55.412 54.012 55.412 53.812 55.412 53.612 C 55.412 51.112 55.412 48.612 55.412 46.112 C 55.412 44.612 55.512 43.112 55.712 41.712 C 55.912 40.712 56.112 39.812 56.512 38.912 C 57.112 37.812 57.912 37.012 59.112 36.612 C 59.812 36.412 60.512 36.412 61.212 36.412 C 61.612 36.412 62.012 36.512 62.312 36.412 C 63.012 36.412 63.412 35.912 63.412 35.212 C 63.412 34.012 63.412 32.812 63.412 31.612 C 63.412 31.112 63.212 30.812 62.812 30.512 C 62.512 30.312 62.112 30.112 61.712 30.112 C 60.312 30.012 59.012 30.412 57.812 31.212 C 56.812 31.912 56.112 32.812 55.512 33.712 C 55.112 34.312 54.812 34.912 54.612 35.612 C 54.912 35.812 54.912 35.912 54.812 35.912 Z " fill="rgb(255,255,255)"/><path d=" M 37.212 43.012 C 37.212 46.512 37.212 50.012 37.212 53.412 C 37.212 53.512 37.212 53.612 37.212 53.712 C 37.212 54.512 37.912 55.312 38.712 55.312 C 39.912 55.412 41.012 55.412 42.212 55.312 C 43.012 55.312 43.512 54.612 43.612 53.912 C 43.612 53.712 43.612 53.512 43.612 53.312 C 43.612 46.412 43.612 39.612 43.612 32.712 C 43.612 32.612 43.612 32.512 43.612 32.412 C 43.612 31.212 42.612 30.612 41.712 30.612 C 40.812 30.612 39.912 30.612 39.012 30.612 C 38.912 30.612 38.712 30.612 38.612 30.612 C 37.812 30.812 37.212 31.512 37.212 32.412 C 37.212 36.012 37.212 39.512 37.212 43.012 Z " fill="rgb(255,255,255)"/><path d=" M 71.512 24.312 C 71.612 24.312 71.612 24.412 71.712 24.412 C 72.412 24.612 72.812 25.112 72.912 25.812 C 72.912 26.012 72.912 26.212 72.912 26.412 C 72.912 30.912 72.912 35.512 72.912 40.012 C 72.912 40.112 72.912 40.312 72.912 40.412 C 72.912 40.412 72.912 40.412 73.012 40.412 C 73.112 40.312 73.112 40.312 73.212 40.212 C 75.412 37.412 77.612 34.612 79.812 31.812 C 80.312 31.212 80.912 30.812 81.612 30.712 C 81.712 30.712 81.912 30.712 82.112 30.712 C 83.612 30.712 85.112 30.712 86.512 30.712 C 86.612 30.712 86.812 30.712 86.912 30.712 C 87.312 30.812 87.412 31.012 87.312 31.412 C 87.212 31.812 87.012 32.112 86.812 32.412 C 85.712 33.712 84.612 35.012 83.612 36.312 C 82.112 38.112 80.612 39.812 79.212 41.612 C 79.212 41.612 79.112 41.712 79.112 41.812 C 79.212 41.912 79.312 42.012 79.412 42.212 C 82.112 45.712 84.812 49.312 87.512 52.812 C 87.712 53.112 88.012 53.412 88.212 53.712 C 88.312 53.912 88.412 54.112 88.512 54.312 C 88.612 54.712 88.512 55.012 88.212 55.212 C 87.912 55.412 87.512 55.512 87.212 55.512 C 85.912 55.512 84.612 55.512 83.412 55.512 C 82.112 55.512 81.012 54.912 80.312 53.812 C 78.012 50.512 75.812 47.212 73.512 43.912 C 73.412 43.812 73.412 43.712 73.312 43.612 C 73.312 43.712 73.312 43.812 73.312 43.912 C 73.312 45.212 73.312 46.512 73.312 47.812 C 73.312 49.812 73.312 51.712 73.212 53.712 C 73.212 54.512 72.912 55.112 72.112 55.412 C 71.912 55.512 71.612 55.512 71.312 55.612 C 70.412 55.612 69.512 55.612 68.612 55.612 C 67.712 55.612 67.012 55.012 66.812 54.212 C 66.812 54.012 66.812 53.912 66.812 53.712 C 66.812 47.012 66.812 40.412 66.812 33.712 C 66.812 31.312 66.812 28.812 66.812 26.412 C 66.812 25.412 67.212 24.912 68.212 24.612 C 68.212 24.612 68.312 24.612 68.312 24.512 C 69.212 24.312 70.412 24.312 71.512 24.312 Z " fill="rgb(255,255,255)"/><path d=" M 112.312 44.712 C 112.312 44.912 112.312 45.012 112.312 45.212 C 112.312 48.012 112.312 50.812 112.312 53.712 C 112.312 53.912 112.312 54.212 112.212 54.412 C 111.912 55.112 111.412 55.512 110.712 55.512 C 109.912 55.512 109.012 55.512 108.212 55.512 C 107.312 55.512 106.612 54.812 106.612 53.812 C 106.612 53.312 106.612 52.812 106.612 52.212 C 106.512 52.312 106.512 52.312 106.412 52.312 C 105.012 54.212 103.112 55.312 100.912 55.812 C 98.112 56.312 95.512 55.812 93.112 54.112 C 91.612 53.012 90.712 51.512 90.512 49.612 C 90.412 48.312 90.412 47.112 90.812 45.812 C 91.412 43.912 92.512 42.612 94.212 41.712 C 95.512 41.012 96.912 40.612 98.412 40.412 C 100.212 40.112 102.012 40.012 103.812 40.112 C 104.612 40.112 105.312 40.112 106.112 40.112 C 106.212 40.112 106.312 40.112 106.512 40.112 C 106.512 40.012 106.512 39.912 106.512 39.912 C 106.512 39.212 106.412 38.612 106.212 37.912 C 105.812 36.512 104.912 35.612 103.612 35.212 C 102.512 34.912 101.412 34.812 100.312 34.912 C 98.412 35.012 96.612 35.612 94.912 36.512 C 94.612 36.612 94.412 36.712 94.112 36.812 C 93.712 36.912 93.412 36.712 93.312 36.212 C 93.312 36.112 93.312 36.012 93.312 36.012 C 93.312 35.312 93.312 34.612 93.212 33.912 C 93.112 32.412 94.112 31.612 95.012 31.312 C 96.512 30.812 98.012 30.412 99.612 30.312 C 100.912 30.212 102.312 30.112 103.612 30.312 C 104.912 30.412 106.112 30.612 107.312 31.112 C 109.412 31.912 110.912 33.312 111.612 35.512 C 112.012 36.512 112.212 37.512 112.312 38.512 C 112.412 39.512 112.412 40.512 112.412 41.512 C 112.412 42.212 112.412 42.912 112.412 43.612 C 112.412 43.812 112.412 43.912 112.412 44.112 C 112.312 44.112 112.312 44.412 112.312 44.712 Z  M 106.512 44.012 C 106.412 44.012 106.312 44.012 106.212 44.012 C 105.212 44.012 104.212 44.012 103.212 44.012 C 102.412 44.012 101.712 44.112 100.912 44.212 C 100.012 44.312 99.112 44.612 98.312 45.012 C 97.512 45.412 96.912 46.112 96.712 47.012 C 96.612 47.512 96.512 47.912 96.512 48.412 C 96.512 49.612 97.112 50.412 98.212 50.912 C 99.112 51.212 100.012 51.312 100.912 51.312 C 102.512 51.212 103.812 50.612 104.812 49.512 C 105.312 48.912 105.712 48.212 106.012 47.512 C 106.312 46.312 106.512 45.212 106.512 44.012 Z " fill="rgb(255,255,255)"/><path d=" M 12.312 31.312 C 12.412 31.212 12.412 31.212 12.312 31.312 C 12.612 30.712 13.012 30.612 13.512 30.612 C 14.512 30.612 15.512 30.612 16.512 30.612 C 17.412 30.612 18.012 31.012 18.512 31.712 C 19.912 33.712 21.312 35.712 22.712 37.712 C 22.812 37.912 22.912 38.012 23.112 38.212 C 23.212 38.112 23.312 38.012 23.312 37.912 C 24.712 35.812 26.112 33.712 27.612 31.712 C 28.012 31.112 28.612 30.712 29.412 30.512 C 29.512 30.512 29.612 30.512 29.812 30.512 C 30.712 30.512 31.712 30.512 32.612 30.512 C 32.912 30.512 33.112 30.612 33.412 30.712 C 33.712 30.912 33.912 31.212 33.812 31.512 C 33.812 31.912 33.612 32.212 33.412 32.512 C 33.012 33.112 32.612 33.612 32.212 34.212 C 30.312 37.012 28.312 39.812 26.412 42.612 C 26.412 42.712 26.312 42.712 26.312 42.812 C 26.412 42.912 26.412 43.012 26.512 43.112 C 28.812 46.512 31.212 49.912 33.512 53.312 C 33.712 53.512 33.812 53.812 33.912 54.112 C 34.012 54.612 33.812 55.012 33.412 55.112 C 33.212 55.212 33.012 55.212 32.812 55.212 C 31.912 55.212 30.912 55.212 30.012 55.212 C 29.112 55.212 28.412 54.812 27.912 54.112 C 26.412 51.912 24.912 49.812 23.412 47.612 C 23.312 47.512 23.312 47.412 23.212 47.312 C 23.112 47.412 23.112 47.512 23.012 47.512 C 21.412 49.812 19.912 52.112 18.312 54.312 C 18.012 54.812 17.512 55.012 17.012 55.112 C 16.812 55.112 16.712 55.112 16.512 55.112 C 15.612 55.112 14.712 55.112 13.812 55.112 C 13.612 55.112 13.412 55.112 13.212 55.012 C 12.912 54.912 12.712 54.812 12.612 54.512 C 12.612 54.412 12.512 54.412 12.512 54.412 C 12.512 54.212 12.512 54.112 12.512 53.912 C 12.512 53.912 12.612 53.812 12.612 53.812 C 12.812 53.512 12.912 53.212 13.112 52.912 C 13.212 52.712 13.312 52.612 13.312 52.412 C 13.412 52.212 13.412 52.112 13.512 51.912 C 15.612 48.912 17.712 45.812 19.812 42.812 C 19.912 42.712 19.912 42.612 20.012 42.512 C 19.912 42.412 19.912 42.312 19.812 42.312 C 17.712 39.212 15.512 36.112 13.412 33.012 C 13.112 32.512 12.712 32.012 12.512 31.512 C 12.512 31.512 12.412 31.412 12.412 31.412 C 12.312 31.512 12.312 31.412 12.312 31.312 Z " fill="rgb(255,255,255)"/><path d=" M 54.812 35.912 C 54.812 35.812 54.912 35.812 54.912 35.712 C 55.112 35.012 55.412 34.412 55.812 33.812 C 56.412 32.812 57.212 31.912 58.112 31.312 C 59.312 30.512 60.612 30.112 62.012 30.212 C 62.412 30.212 62.712 30.412 63.112 30.612 C 63.512 30.912 63.712 31.212 63.712 31.712 C 63.712 32.912 63.712 34.112 63.712 35.312 C 63.712 36.012 63.312 36.412 62.612 36.512 C 62.212 36.512 61.812 36.512 61.512 36.512 C 60.812 36.412 60.112 36.512 59.412 36.712 C 58.212 37.112 57.312 37.912 56.812 39.012 C 56.312 39.912 56.112 40.812 56.012 41.812 C 55.812 43.312 55.712 44.712 55.712 46.212 C 55.712 48.712 55.712 51.212 55.712 53.712 C 55.712 53.912 55.712 54.112 55.612 54.312 C 55.412 55.012 54.912 55.512 54.212 55.612 C 53.112 55.712 51.912 55.712 50.712 55.612 C 49.912 55.612 49.312 54.812 49.212 53.912 C 49.212 53.812 49.212 53.712 49.212 53.612 C 49.212 46.712 49.212 39.712 49.212 32.812 C 49.212 32.512 49.212 32.112 49.412 31.812 C 49.612 31.312 50.212 30.712 50.912 30.812 C 51.712 30.812 52.412 30.812 53.212 30.812 C 54.312 30.712 54.912 31.612 55.012 32.512 C 55.012 33.412 55.012 34.212 55.012 35.112 C 54.812 35.312 54.812 35.612 54.812 35.912 C 54.812 35.912 54.812 35.912 54.812 35.912 Z " fill="rgb(255,255,255)"/><path d=" M 37.212 43.012 C 37.212 39.512 37.212 36.012 37.212 32.412 C 37.212 31.512 37.812 30.812 38.612 30.612 C 38.712 30.612 38.912 30.612 39.012 30.612 C 39.912 30.612 40.812 30.612 41.712 30.612 C 42.512 30.612 43.512 31.212 43.612 32.412 C 43.612 32.512 43.612 32.612 43.612 32.712 C 43.612 39.612 43.612 46.412 43.612 53.312 C 43.612 53.512 43.612 53.712 43.612 53.912 C 43.512 54.612 42.912 55.312 42.212 55.312 C 41.012 55.412 39.912 55.412 38.712 55.312 C 37.912 55.312 37.312 54.512 37.212 53.712 C 37.212 53.612 37.212 53.512 37.212 53.412 C 37.212 50.012 37.212 46.512 37.212 43.012 Z " fill="rgb(255,255,255)"/></g></g></svg>