<?xml version="1.0" standalone="no"?><!-- Generator: Gravit.io --><svg xmlns="http://www.w3.org/2000/svg" xmlns:xlink="http://www.w3.org/1999/xlink" style="isolation:isolate" viewBox="0 0 75 75" width="75" height="75"><g id="null"><path d=" M 37.5 75 C 16.8 75 0 58.2 0 37.5 C 0 16.8 16.8 0 37.5 0 C 58.2 0 75 16.8 75 37.5 C 75 58.2 58.2 75 37.5 75 Z  M 37.5 5 C 19.6 5 5 19.6 5 37.5 C 5 55.4 19.6 70 37.5 70 C 55.4 70 70 55.4 70 37.5 C 70 19.6 55.4 5 37.5 5 Z " fill="rgb(255,255,255)"/><g id="null"><g id="null"><path d=" M 56.1 17.2 L 39 22.6 L 41.9 24 L 16.1 39.1 L 17.4 41.4 L 43.4 26.2 L 43 29.5 L 56.1 17.2 Z " fill="rgb(255,255,255)"/><path d=" M 26.7 43.3 L 17.2 43.3 C 16.7 43.3 16.3 43.7 16.3 44.2 L 16.3 46.9 C 16.3 47.4 16.7 47.8 17.2 47.8 L 26.7 47.8 C 27.2 47.8 27.6 47.4 27.6 46.9 L 27.6 44.2 C 27.6 43.7 27.2 43.3 26.7 43.3 Z " fill="rgb(255,255,255)"/><path d=" M 26.7 49.3 L 17.2 49.3 C 16.7 49.3 16.3 49.7 16.3 50.2 L 16.3 52.9 C 16.3 53.4 16.7 53.8 17.2 53.8 L 26.7 53.8 C 27.2 53.8 27.6 53.4 27.6 52.9 L 27.6 50.2 C 27.6 49.7 27.2 49.3 26.7 49.3 Z " fill="rgb(255,255,255)"/><path d=" M 40 43.3 L 30.5 43.3 C 30 43.3 29.6 43.7 29.6 44.2 L 29.6 46.9 C 29.6 47.4 30 47.8 30.5 47.8 L 40 47.8 C 40.5 47.8 40.9 47.4 40.9 46.9 L 40.9 44.2 C 41 43.7 40.5 43.3 40 43.3 Z " fill="rgb(255,255,255)"/><path d=" M 40 49.3 L 30.5 49.3 C 30 49.3 29.6 49.7 29.6 50.2 L 29.6 52.9 C 29.6 53.4 30 53.8 30.5 53.8 L 40 53.8 C 40.5 53.8 40.9 53.4 40.9 52.9 L 40.9 50.2 C 41 49.7 40.5 49.3 40 49.3 Z " fill="rgb(255,255,255)"/><path d=" M 40 37.3 L 30.5 37.3 C 30 37.3 29.6 37.7 29.6 38.2 L 29.6 40.9 C 29.6 41.4 30 41.8 30.5 41.8 L 40 41.8 C 40.5 41.8 40.9 41.4 40.9 40.9 L 40.9 38.2 C 41 37.7 40.5 37.3 40 37.3 Z " fill="rgb(255,255,255)"/><path d=" M 54.8 43.3 L 45.3 43.3 C 44.8 43.3 44.4 43.7 44.4 44.2 L 44.4 46.9 C 44.4 47.4 44.8 47.8 45.3 47.8 L 54.8 47.8 C 55.3 47.8 55.7 47.4 55.7 46.9 L 55.7 44.2 C 55.7 43.7 55.3 43.3 54.8 43.3 Z " fill="rgb(255,255,255)"/><path d=" M 54.8 49.3 L 45.3 49.3 C 44.8 49.3 44.4 49.7 44.4 50.2 L 44.4 52.9 C 44.4 53.4 44.8 53.8 45.3 53.8 L 54.8 53.8 C 55.3 53.8 55.7 53.4 55.7 52.9 L 55.7 50.2 C 55.7 49.7 55.3 49.3 54.8 49.3 Z " fill="rgb(255,255,255)"/><path d=" M 54.8 37.3 L 45.3 37.3 C 44.8 37.3 44.4 37.7 44.4 38.2 L 44.4 40.9 C 44.4 41.4 44.8 41.8 45.3 41.8 L 54.8 41.8 C 55.3 41.8 55.7 41.4 55.7 40.9 L 55.7 38.2 C 55.7 37.7 55.3 37.3 54.8 37.3 Z " fill="rgb(255,255,255)"/><path d=" M 54.8 31.3 L 45.3 31.3 C 44.8 31.3 44.4 31.7 44.4 32.2 L 44.4 34.9 C 44.4 35.4 44.8 35.8 45.3 35.8 L 54.8 35.8 C 55.3 35.8 55.7 35.4 55.7 34.9 L 55.7 32.2 C 55.7 31.7 55.3 31.3 54.8 31.3 Z " fill="rgb(255,255,255)"/></g></g></g></svg>