<?xml version="1.0" standalone="no"?><!-- Generator: Gravit.io --><svg xmlns="http://www.w3.org/2000/svg" xmlns:xlink="http://www.w3.org/1999/xlink" style="isolation:isolate" viewBox="0 0 75 75" width="75" height="75"><g id="null"><path d=" M 37.5 75 C 16.8 75 0 58.2 0 37.5 C 0 16.8 16.8 0 37.5 0 C 58.2 0 75 16.8 75 37.5 C 75 58.2 58.2 75 37.5 75 Z  M 37.5 5 C 19.6 5 5 19.6 5 37.5 C 5 55.4 19.6 70 37.5 70 C 55.4 70 70 55.4 70 37.5 C 70 19.6 55.4 5 37.5 5 Z " fill="rgb(255,255,255)"/><g id="null"><path d=" M 21.6 19.1 L 18.5 19.1 L 18.5 20.7 L 18.5 55.7 L 18.5 56.7 L 21.6 51.7 L 21.6 19.1 Z " fill="rgb(255,255,255)"/><path d=" M 19.2 57.4 L 20.1 57.4 L 55.2 57.4 L 56.8 57.4 L 56.8 54.3 L 24.1 54.3 L 19.2 57.4 Z " fill="rgb(255,255,255)"/><path d=" M 56.6 19.2 C 55.5 18.1 54.1 17.4 52.7 17.3 C 51.4 17.2 50.2 17.5 49.3 18.3 L 46.9 20.6 L 30 37.2 L 23.5 52.1 L 38.2 45.8 L 55.8 28 L 57.4 26.4 C 59.1 24.5 58.8 21.3 56.6 19.2 Z  M 47.8 20.8 L 49.4 21.2 L 32.7 37.9 L 31.1 37.5 L 47.8 20.8 Z  M 30.3 48.4 C 30 47.8 29.6 47.2 29.1 46.7 C 28.6 46.2 28 45.8 27.4 45.5 L 30.5 38.3 L 32.7 38.8 L 36.8 42.9 L 37.3 45.4 L 30.3 48.4 Z  M 37.5 42.4 L 33.5 38.4 L 50.3 21.6 L 54.2 25.5 L 54.2 25.6 L 37.5 42.4 Z  M 57.2 25.4 L 57.1 24.9 C 56.9 24.1 56.2 23 55.6 22.4 L 53.2 20 C 52.6 19.4 51.5 18.8 50.7 18.6 L 50.4 18.5 C 51 18.2 51.8 18 52.6 18.1 C 53.8 18.2 55 18.8 56 19.8 C 57.6 21.4 58.1 23.7 57.2 25.4 Z " fill="rgb(255,255,255)"/></g></g></svg>