<?xml version="1.0" standalone="no"?><!-- Generator: Gravit.io --><svg xmlns="http://www.w3.org/2000/svg" xmlns:xlink="http://www.w3.org/1999/xlink" style="isolation:isolate" viewBox="0 0 75 75" width="75" height="75"><g id="null"><path d=" M 37.5 75 C 16.8 75 0 58.2 0 37.5 C 0 16.8 16.8 0 37.5 0 C 58.2 0 75 16.8 75 37.5 C 75 58.2 58.2 75 37.5 75 Z  M 37.5 5 C 19.6 5 5 19.6 5 37.5 C 5 55.4 19.6 70 37.5 70 C 55.4 70 70 55.4 70 37.5 C 70 19.6 55.5 5 37.5 5 Z " fill="rgb(255,255,255)"/><g id="null"><path d=" M 40 38.5 L 40.8 37 L 42.2 34.4 C 42.2 34.4 42.2 34.4 42.2 34.4 L 51.6 24.9 L 53 23.5 L 54.9 22.5 L 55.6 22.1 L 57.1 19.8 L 55.9 18.6 L 53.6 20.1 L 53.2 20.8 L 52.2 22.7 L 50.8 24.1 L 49.5 25.4 L 41.4 33.5 C 41.4 33.5 41.4 33.5 41.4 33.5 C 41.4 33.5 41.4 33.5 41.4 33.5 L 37.3 35.7 C 36.4 36.2 35.1 37.2 34.4 37.9 L 33.2 39.1 L 33 39.3 L 33 39.3 L 18.5 53.8 C 18.5 53.8 18.5 53.8 18.5 53.8 C 17.8 54.5 17.8 55.7 18.5 56.4 L 19.3 57.2 C 20 57.9 21.2 57.9 21.9 57.2 C 21.9 57.2 21.9 57.2 21.9 57.2 L 31.5 47.6 L 36.5 42.6 L 37.9 41.2 C 38.5 40.7 39.5 39.4 40 38.5 Z " fill="rgb(255,255,255)"/><path d=" M 56.2 50.3 C 55.2 49.3 53.7 48.8 52.4 49 L 41.5 38.1 L 41 39.1 C 40.9 39.3 40.7 39.6 40.6 39.8 C 40.1 40.6 39.4 41.5 38.8 42.1 L 37.7 43.2 L 48.2 53.7 C 48.2 54.4 48.4 55 48.7 55.6 C 48.9 56.1 49.2 56.5 49.6 56.9 C 50 57.3 50.4 57.6 50.9 57.8 C 52.4 58.5 54.2 58.4 55.6 57.5 C 55.9 57.3 56.1 57.1 56.4 56.9 C 58 55.1 58 52.1 56.2 50.3 Z  M 54.9 55.7 C 54.7 55.9 54.4 56.1 54.1 56.3 C 53 56.8 51.6 56.6 50.7 55.7 C 49.8 54.8 49.6 53.4 50.1 52.3 C 50.2 52.2 50.2 52.1 50.3 52 L 51.2 51.1 C 51.9 50.7 52.7 50.5 53.5 50.7 C 54 50.8 54.5 51.1 54.9 51.5 C 55.3 51.9 55.5 52.4 55.7 52.9 C 55.9 53.9 55.7 54.9 54.9 55.7 Z " fill="rgb(255,255,255)"/><path d=" M 29.7 32.9 L 31.4 37.1 L 32.5 38.2 L 33.6 37.1 C 34.2 36.5 35.1 35.8 35.9 35.3 C 36.2 35.1 36.4 35 36.6 34.9 L 37.6 34.4 L 35.8 32.6 L 31.8 30.9 L 36 23.6 L 28.9 18.3 L 24.7 18.9 L 25.7 19.9 L 29.1 23.4 L 28.4 26.3 L 27 27.7 L 26.8 27.9 L 25.4 29.3 L 25.4 29.3 L 22.5 30 L 18 25.6 L 17.7 28 L 17.4 29.8 L 22.7 36.9 L 29.7 32.9 Z " fill="rgb(255,255,255)"/></g></g></svg>